<?xml version="1.0" encoding="utf-8"?>
<!-- Generator: Adobe Illustrator 22.0.1, SVG Export Plug-In . SVG Version: 6.00 Build 0)  -->
<svg version="1.1" id="Layer_1" xmlns="http://www.w3.org/2000/svg" xmlns:xlink="http://www.w3.org/1999/xlink" x="0px" y="0px"
	 viewBox="0 0 108.3 125" style="enable-background:new 0 0 108.3 125;" xml:space="preserve">
<style type="text/css">
	.st0{fill:#F8F8F8;}
	.st1{fill:#FF4A59;}
	.st2{opacity:0.15;}
	.st3{fill:none;stroke:#000000;stroke-width:1.9411;stroke-linecap:round;stroke-linejoin:bevel;}
	.st4{stroke:#000000;stroke-width:2.1573;}
	.st5{stroke:#000000;stroke-width:17.114;stroke-linecap:round;stroke-linejoin:round;}
	.st6{stroke:#000000;stroke-linecap:round;stroke-linejoin:round;}
	.st7{stroke:#000000;stroke-width:1.9195;stroke-linecap:round;stroke-linejoin:round;}
</style>
<title>alice</title>
<polygon class="st0" points="0,31.2 54.2,0 108.3,31.2 108.3,93 54.2,125 0,93 "/>
<g id="Mask-2">
	<path id="path-2-2" class="st1" d="M7,36L53.8,9l46.8,27v53.3L53.8,117L7,89.3V36z"/>
</g>
<g id="Path-295" class="st2">
	<path d="M101.8,36L54,65.3l47.3,24.2L101.8,36z"/>
	<path d="M6,36l47.8,29.3L6.6,89.6L6,36z"/>
</g>
<path id="rect4240-8-4-1-9-8-2-9-8-4-5-1-0-9-6-6-7" class="st3" d="M50.9,26.9l-1.7,0.2C39,28.6,31.8,37,33.1,45.9l0.2,1.1
	c1.3,8.8,10.7,14.8,20.9,13.2l1.7-0.2c10.2-1.5,17.4-9.9,16.1-18.8l-0.2-1.1C70.5,31.3,61.1,25.4,50.9,26.9z"/>
<g id="g5871">
	<path id="path4010-1-9-2-6-6-6-8-1-7-3-2-1-3-0-4-3-6-2-8-98-4-2-8-3-6-6-3-7" class="st4" d="M45.9,101.8c0,0,3.1-4.8-3.5-9.7
		c-8.8-6.6-13.2-2.8-13.2-2.8C27.5,90.1,44.6,103.8,45.9,101.8L45.9,101.8z"/>
	<path id="path4010-1-9-2-6-6-6-8-1-7-3-2-2-1-3-5-6-3-8-2-9-6-9-1-0-7-3-2" class="st4" d="M71.7,96.6c0,0-1.8-5.4-9.7-3.4
		c-10.7,2.7-10.5,8.4-10.5,8.4C51,103.5,72.4,98.8,71.7,96.6L71.7,96.6z"/>
	<g id="g456-1-7-8-4-8-6-8-5-6-2-1-8-2-4-5-3-5-5" transform="matrix(-.99773 .051335 -.051335 -.99773 -33.809 463.6)">
		<path id="path458-9-9-9-5-6-0-8-1-8-9-0-5-6-9-0-7-2-0" d="M-92.9,416.3c0-0.8-0.6-1.4-1.4-1.4s-1.4,0.6-1.4,1.4s0.6,1.4,1.4,1.4
			C-93.5,417.7-92.9,417.1-92.9,416.3"/>
	</g>
	<g id="g5401" transform="matrix(.94407 .32973 -.32973 .94407 -442.16 305.4)">
		<path id="path3954-8-5-7-3-4-8-9-1-7-1-6-4-9-4-8-7-3-1-8-9-9-8-86-6-5-8_2_" class="st5" d="M389.1-365c1.7,0.9,4.1,0.4,5.3-1"/>
	</g>
	<path id="path3934-2-5-3-6-40-8" d="M49.4,22.8c-1.7,1.4-3.9,2-5.9,1.3c-0.7,1.1-1.1,2.8-2.9,2.3c-0.9,0.8-1.2,2.8-2.9,1.9
		c-1.4,0.9,0.3,3.4-1.6,4.2c-1.2,2.4,2.3,0.4,3.6,1.3c2.2,0.8,5.5,4.6,7.4,6.1c0.6,1.8,3.4,0.8,5,1.5c0.8,1.9,1,2.1,2,4
		c1.1,1.4,4,1.7,3.2,3.6c-0.5,1.7,2.6,1.9,0.9,3.2c-0.6,1.7,4.6,1.3,3.8,3.2c3.3-0.2,3.1,2.4,4.1,0.2c0.8-1.8,2.7-1.2,3.4-3.2
		c1.6-1.2,1.7-3.5,3.2-4.4c1.5-0.8,0.8-2.5,1.9-3.6c0.3-1.6-1.9-2.3-1-4.1c0.3-1.8-1.7-2.3-1.8-4.1c-0.7-1.8-1.7-3.5-2.4-5.2
		c-1.6-0.8-1.5-3-3.1-3.4c-1.8-1.6-3.9-2.5-6-3.6c-1.7-1-3.7-0.9-5.6-0.7c-1.3-0.1-2.5-0.7-3.8,0.2C50.2,23.6,50.1,22.6,49.4,22.8
		L49.4,22.8z"/>
	<path id="path3032-2-8-3-9-5-1" class="st6" d="M40.6,51.4c0-0.9-0.7-1.5-1.5-1.5s-1.5,0.7-1.5,1.5c0,0.9,0.7,1.5,1.5,1.5
		S40.6,52.2,40.6,51.4z"/>
</g>
<g>
	<path class="st7" d="M68.3,65.8c-1.1-2.8-2.4-5.4-4.2-7.8c-2.4,1.5-5.2,2.6-8.2,3.1l-1.7,0.2c-4.8,0.7-9.4-0.2-13-2.3
		c-1.4,2.1-2.5,4.4-3.3,6.8c3.5,1,8.2,2.1,13.9,2.2C58.7,68.2,64.4,66.9,68.3,65.8z"/>
	<path class="st7" d="M68.4,65.9c0.4,1.2,0.8,2.5,1.2,3.7C69.2,68.3,68.8,67.1,68.4,65.9z"/>
	<path class="st7" d="M37.9,65.8c-0.5,1.3-0.9,2.6-1.2,4L37.9,65.8z"/>
</g>
<path class="st7" d="M72.3,93.5L72.3,93.5c0-0.1,0-0.2-0.1-0.2c-0.6-1.7-1.3-3.4-1.9-5c0.1-0.1,0.3-0.2,0.4-0.3
	c0.9-1.9,0.4-4.6,0.5-6.8c-0.1-3.8-0.6-7.7-1.6-11.5c-4.4,1.2-10.5,2.3-17.8,2.1c-6-0.1-11.2-1.1-15.1-2.1c-1,3.9-1.4,8-1.4,12
	c0.2,2-0.1,4.3,0.5,6.2c-0.2,0.3-0.4,0.6-0.7,0.9l0,0l0,0l0,0l0,0c-0.4,0.7,2.8,3.9,7.2,7.2c3.9,2.9,7.5,4.9,8.6,4.9L51,101l0.1-0.1
	c0,0,0.1,0,0.1-0.1v-0.1c0.5-0.6,1-1.2,1.4-1.9c0.2,0.6,0.4,1.2,0.7,1.8l0,0l0,0l0,0l0,0c0.4,0.7,4.8-0.3,10-2.3
	c4.5-1.7,8.1-3.7,8.8-4.6L72.3,93.5C72.3,93.7,72.3,93.6,72.3,93.5z M51.2,77.9c-5.8-0.1-10.7-0.9-14.6-1.7l0.8-3.3
	c3.9,0.7,8.7,1.3,14.3,1.4c6.9,0.1,12.7-0.6,17.2-1.4c0.2,1.1,0.5,2.2,0.7,3.3C65.1,77.2,58.7,78.1,51.2,77.9z"/>
</svg>
